<?xml version="1.0" encoding="UTF-8"?>
<svg id="Ebene_1" xmlns="http://www.w3.org/2000/svg" viewBox="0 0 718.06 269">
  <defs>
    <style>
      .cls-1 {
        fill: #fff;
      }

      .cls-2 {
        fill: #003c78;
      }

      .cls-3 {
        fill: #1e8cc8;
      }
    </style>
  </defs>
  <rect class="cls-1" width="718.06" height="269"/>
  <g>
    <g>
      <path class="cls-3" d="M256.73,101.59c3.92,0,7.68,1.53,10.64,4.06.35.35.39.87.04,1.22l-2.7,2.83c-.35.35-.74.35-1.13,0-1.88-1.66-4.19-2.53-6.58-2.53-5.45,0-9.77,4.67-9.77,10.12s4.32,9.99,9.81,9.99c2.44,0,4.32-.74,5.19-1.09v-3.71h-3.49c-.48,0-.83-.35-.83-.79v-3.45c0-.48.35-.83.83-.83h8.37c.44,0,.79.39.79.83v11.16c0,.35-.17.57-.35.7,0,0-4.49,2.83-10.82,2.83-8.68,0-15.66-6.89-15.66-15.61s6.98-15.74,15.66-15.74Z"/>
      <path class="cls-3" d="M276.92,102.86c0-.44.35-.83.83-.83h17.75c.48,0,.83.39.83.83v3.58c0,.44-.35.83-.83.83h-12.91v7.15h10.77c.44,0,.83.39.83.83v3.62c0,.48-.39.83-.83.83h-10.77v7.63h12.91c.48,0,.83.39.83.83v3.58c0,.44-.35.83-.83.83h-17.75c-.48,0-.83-.39-.83-.83v-28.87Z"/>
      <path class="cls-3" d="M303.39,128.28l1.57-2.7c.35-.61,1.09-.61,1.48-.31.22.13,3.75,2.7,6.59,2.7,2.27,0,3.97-1.48,3.97-3.36,0-2.22-1.88-3.75-5.54-5.23-4.1-1.66-8.2-4.27-8.2-9.42,0-3.88,2.88-8.37,9.81-8.37,4.45,0,7.85,2.27,8.72,2.92.44.26.57,1,.26,1.44l-1.66,2.49c-.35.52-1,.87-1.53.52-.35-.22-3.66-2.4-6.06-2.4s-3.84,1.66-3.84,3.05c0,2.05,1.61,3.44,5.15,4.88,4.23,1.7,9.11,4.23,9.11,9.86,0,4.49-3.88,8.63-10.03,8.63-5.49,0-8.72-2.57-9.59-3.4-.39-.39-.61-.61-.22-1.31Z"/>
      <path class="cls-3" d="M331.43,102.86c0-.44.39-.83.83-.83h4.06c.44,0,.83.39.83.83v28.87c0,.44-.39.83-.83.83h-4.06c-.44,0-.83-.39-.83-.83v-28.87Z"/>
      <path class="cls-3" d="M345.9,128.28l1.57-2.7c.35-.61,1.09-.61,1.48-.31.22.13,3.75,2.7,6.59,2.7,2.27,0,3.97-1.48,3.97-3.36,0-2.22-1.88-3.75-5.54-5.23-4.1-1.66-8.2-4.27-8.2-9.42,0-3.88,2.88-8.37,9.81-8.37,4.45,0,7.85,2.27,8.72,2.92.44.26.57,1,.26,1.44l-1.66,2.49c-.35.52-1,.87-1.53.52-.35-.22-3.66-2.4-6.06-2.4s-3.84,1.66-3.84,3.05c0,2.05,1.61,3.44,5.15,4.88,4.23,1.7,9.11,4.23,9.11,9.86,0,4.49-3.88,8.63-10.03,8.63-5.49,0-8.72-2.57-9.59-3.4-.39-.39-.61-.61-.22-1.31Z"/>
      <path class="cls-2" d="M385.55,102.86c0-.44.35-.83.83-.83h1.7c.44,0,.83.39.83.83v26.78h12.56c.48,0,.83.39.83.83v1.26c0,.44-.35.83-.83.83h-15.09c-.48,0-.83-.39-.83-.83v-28.87Z"/>
      <path class="cls-2" d="M413.11,114.67c4.58,0,7.89,3.4,7.89,7.98,0,.31-.04.87-.09,1.18-.04.44-.39.74-.79.74h-12.56c.17,2.92,2.75,5.67,5.84,5.67,1.83,0,3.31-.7,4.32-1.31.61-.35.87-.57,1.22-.09.26.35.48.65.74,1,.31.39.48.65-.17,1.13-1.05.83-3.4,2.01-6.41,2.01-5.28,0-8.55-4.14-8.55-9.16s3.27-9.16,8.55-9.16ZM417.99,122.13c-.13-2.53-2.22-4.8-4.88-4.8-2.92,0-5.19,2.09-5.49,4.8h10.38Z"/>
      <path class="cls-2" d="M425.36,104.99c0-1.18.92-2.09,2.05-2.09s2.09.92,2.09,2.09-.92,2.05-2.09,2.05-2.05-.92-2.05-2.05ZM425.97,115.94c0-.44.39-.83.83-.83h1.35c.44,0,.83.39.83.83v15.79c0,.44-.39.83-.83.83h-1.35c-.44,0-.83-.39-.83-.83v-15.79Z"/>
      <path class="cls-2" d="M436.3,102.86c0-.44.39-.83.83-.83h1.35c.44,0,.83.39.83.83v12.95s1.79-1.13,4.67-1.13c5.23,0,8.37,4.01,8.37,9.11s-3.49,9.2-7.94,9.2c-3.27,0-5.36-2.31-5.36-2.31l-.26,1.18c-.09.39-.35.7-.74.7h-.92c-.44,0-.83-.39-.83-.83v-28.87ZM444.11,130.24c3.18,0,5.19-3.01,5.19-6.41s-1.92-6.24-5.71-6.24c-2.4,0-4.23,1.05-4.23,1.05v8.72s1.61,2.88,4.75,2.88Z"/>
      <path class="cls-2" d="M457.5,115.94c0-.44.39-.83.83-.83h.83c.39,0,.61.17.7.52l.39,1.35s2.49-2.31,6.11-2.31c5.06,0,6.76,3.31,6.76,7.85v9.2c0,.44-.39.83-.83.83h-1.4c-.44,0-.83-.39-.83-.83v-9.2c0-3.31-1.48-4.93-3.92-4.93-3.27,0-5.63,2.49-5.63,2.49v11.64c0,.44-.39.83-.83.83h-1.35c-.44,0-.83-.39-.83-.83v-15.79Z"/>
      <path class="cls-2" d="M478.69,104.99c0-1.18.92-2.09,2.05-2.09s2.09.92,2.09,2.09-.92,2.05-2.09,2.05-2.05-.92-2.05-2.05ZM479.3,115.94c0-.44.39-.83.83-.83h1.35c.44,0,.83.39.83.83v15.79c0,.44-.39.83-.83.83h-1.35c-.44,0-.83-.39-.83-.83v-15.79Z"/>
      <path class="cls-2" d="M487.19,131.29l8.55-13.3v-.13h-7.33c-.44,0-.79-.39-.79-.83v-1.09c0-.48.35-.83.79-.83h10.95c.65,0,1.09.61.74,1.18l-8.33,13.39v.13h6.72c.48,0,.83.35.83.83v1.09c0,.44-.35.83-.83.83h-10.47c-.44,0-.83-.39-.83-.83v-.44Z"/>
      <path class="cls-2" d="M518.72,102.86c0-.44.39-.83.83-.83h1.75c.44,0,.83.39.83.83v28.87c0,.44-.39.83-.83.83h-1.75c-.44,0-.83-.39-.83-.83v-28.87Z"/>
      <path class="cls-2" d="M529.88,115.94c0-.44.39-.83.83-.83h.83c.39,0,.61.17.7.52l.39,1.35s2.49-2.31,6.11-2.31c5.06,0,6.76,3.31,6.76,7.85v9.2c0,.44-.39.83-.83.83h-1.4c-.44,0-.83-.39-.83-.83v-9.2c0-3.31-1.48-4.93-3.92-4.93-3.27,0-5.63,2.49-5.63,2.49v11.64c0,.44-.39.83-.83.83h-1.35c-.44,0-.83-.39-.83-.83v-15.79Z"/>
      <path class="cls-2" d="M550.64,130.11c.17-.26.48-.87.61-1.09.22-.35.7-.44,1.18-.13,0,0,1.88,1.53,4.1,1.53,1.79,0,2.83-.92,2.83-2.09,0-1.53-1.31-2.22-3.84-3.49-2.31-1.13-4.97-2.66-4.97-5.63,0-1.83,1.48-4.54,5.54-4.54,2.27,0,4.01.78,4.84,1.35.39.26.52.87.26,1.35l-.35.7c-.26.48-.87.61-1.26.39,0,0-1.88-1.05-3.49-1.05-1.96,0-2.49,1-2.49,1.74,0,1.44,1.44,2.09,3.23,2.97,3.01,1.44,5.71,2.79,5.71,5.93,0,2.53-2.44,4.93-6.02,4.93-2.92,0-4.71-1.22-5.67-1.96-.22-.17-.35-.61-.22-.92Z"/>
      <path class="cls-2" d="M568.56,117.73h-2.22c-.48,0-.83-.39-.83-.83v-.96c0-.48.35-.83.83-.83h2.22v-4.84c0-.44.39-.83.83-.83l1.4-.09c.44,0,.79.39.79.83v4.93h5.06c.48,0,.83.35.83.83v.96c0,.44-.35.83-.83.83h-5.06v10.2c0,1.74.44,2.09,1.44,2.09,1.09,0,2.62-.65,3.18-.96.65-.35.83-.09,1.05.26l.65,1.09c.31.52.17.78-.3,1.09-.61.39-2.97,1.48-5.02,1.48-3.49,0-4.01-2.09-4.01-4.8v-10.47Z"/>
      <path class="cls-2" d="M581.95,104.99c0-1.18.92-2.09,2.05-2.09s2.09.92,2.09,2.09-.92,2.05-2.09,2.05-2.05-.92-2.05-2.05ZM582.56,115.94c0-.44.39-.83.83-.83h1.35c.44,0,.83.39.83.83v15.79c0,.44-.39.83-.83.83h-1.35c-.44,0-.83-.39-.83-.83v-15.79Z"/>
      <path class="cls-2" d="M593.11,117.73h-2.22c-.48,0-.83-.39-.83-.83v-.96c0-.48.35-.83.83-.83h2.22v-4.84c0-.44.39-.83.83-.83l1.4-.09c.44,0,.79.39.79.83v4.93h5.06c.48,0,.83.35.83.83v.96c0,.44-.35.83-.83.83h-5.06v10.2c0,1.74.44,2.09,1.44,2.09,1.09,0,2.62-.65,3.18-.96.65-.35.83-.09,1.05.26l.65,1.09c.31.52.17.78-.3,1.09-.61.39-2.97,1.48-5.02,1.48-3.49,0-4.01-2.09-4.01-4.8v-10.47Z"/>
      <path class="cls-2" d="M606.89,115.94c0-.44.39-.83.83-.83h1.4c.44,0,.83.39.83.83v9.2c0,3.31,1.48,4.93,3.92,4.93,3.31,0,5.19-2.49,5.19-2.49v-11.64c0-.44.39-.83.83-.83h1.35c.44,0,.83.39.83.83v15.79c0,.44-.39.83-.83.83h-.83c-.48,0-.65-.31-.79-.74l-.31-1.13s-2.05,2.31-5.67,2.31c-5.06,0-6.76-3.27-6.76-7.89v-9.16Z"/>
      <path class="cls-2" d="M629.61,117.73h-2.22c-.48,0-.83-.39-.83-.83v-.96c0-.48.35-.83.83-.83h2.22v-4.84c0-.44.39-.83.83-.83l1.4-.09c.44,0,.79.39.79.83v4.93h5.06c.48,0,.83.35.83.83v.96c0,.44-.35.83-.83.83h-5.06v10.2c0,1.74.44,2.09,1.44,2.09,1.09,0,2.62-.65,3.18-.96.65-.35.83-.09,1.05.26l.65,1.09c.31.52.17.78-.31,1.09-.61.39-2.96,1.48-5.01,1.48-3.49,0-4.01-2.09-4.01-4.8v-10.47Z"/>
      <path class="cls-2" d="M650.89,114.67c4.58,0,7.89,3.4,7.89,7.98,0,.31-.04.87-.09,1.18-.04.44-.39.74-.79.74h-12.56c.17,2.92,2.75,5.67,5.84,5.67,1.83,0,3.31-.7,4.32-1.31.61-.35.87-.57,1.22-.09.26.35.48.65.74,1,.31.39.48.65-.17,1.13-1.05.83-3.4,2.01-6.41,2.01-5.28,0-8.55-4.14-8.55-9.16s3.27-9.16,8.55-9.16ZM655.77,122.13c-.13-2.53-2.22-4.8-4.88-4.8-2.92,0-5.19,2.09-5.49,4.8h10.38Z"/>
      <path class="cls-2" d="M243.78,167.28h-2.66c-.48,0-.83-.39-.83-.83v-.96c0-.48.35-.83.83-.83h2.66v-6.11c0-5.06,2.92-7.41,6.67-7.41,2.4,0,4.01,1.05,4.8,1.79.31.26.35.7.17,1l-.7,1.13c-.26.44-.7.39-1.13.04-.57-.44-1.88-1.27-3.18-1.27-2.01,0-3.62,1.35-3.62,4.71v6.11h5.06c.48,0,.83.35.83.83v.96c0,.44-.35.83-.83.83h-5.06v14c0,.44-.39.83-.83.83h-1.35c-.44,0-.83-.39-.83-.83v-14Z"/>
      <path class="cls-2" d="M263.97,164.23c4.84,0,8.68,4.19,8.68,9.11s-3.84,9.2-8.68,9.2-8.68-4.19-8.68-9.2,3.84-9.11,8.68-9.11ZM263.97,179.71c3.18,0,5.67-2.83,5.67-6.37s-2.49-6.24-5.67-6.24-5.67,2.79-5.67,6.24,2.49,6.37,5.67,6.37Z"/>
      <path class="cls-2" d="M277.79,165.49c0-.44.39-.83.83-.83h.83c.35,0,.65.22.74.61l.35,1.26s1.61-2.31,5.23-2.31c1.31,0,3.49.22,3.05,1.44l-.52,1.48c-.22.57-.61.57-1.05.39-.39-.17-1.05-.35-1.7-.35-3.31,0-4.75,2.44-4.75,2.44v11.64c0,.44-.39.83-.83.83h-1.35c-.44,0-.83-.39-.83-.83v-15.79Z"/>
      <path class="cls-2" d="M303.61,167.28h-2.22c-.48,0-.83-.39-.83-.83v-.96c0-.48.35-.83.83-.83h2.22v-4.84c0-.44.39-.83.83-.83l1.4-.09c.44,0,.79.39.79.83v4.93h5.06c.48,0,.83.35.83.83v.96c0,.44-.35.83-.83.83h-5.06v10.2c0,1.74.44,2.09,1.44,2.09,1.09,0,2.62-.65,3.18-.96.65-.35.83-.09,1.05.26l.65,1.09c.31.52.17.78-.3,1.09-.61.39-2.97,1.48-5.02,1.48-3.49,0-4.01-2.09-4.01-4.8v-10.47Z"/>
      <path class="cls-2" d="M317.65,152.41c0-.44.39-.83.83-.83h1.35c.44,0,.83.39.83.83v14.13s2.31-2.31,5.84-2.31c4.32,0,6.76,2.75,6.76,7.85v9.2c0,.44-.39.83-.83.83h-1.4c-.44,0-.83-.39-.83-.83v-9.2c0-3.31-1.48-4.93-3.92-4.93-3.31,0-5.63,2.44-5.63,2.44v11.69c0,.44-.39.83-.83.83h-1.35c-.44,0-.83-.39-.83-.83v-28.87Z"/>
      <path class="cls-2" d="M346.73,164.23c4.58,0,7.89,3.4,7.89,7.98,0,.31-.04.87-.09,1.18-.04.44-.39.74-.79.74h-12.56c.17,2.92,2.75,5.67,5.84,5.67,1.83,0,3.31-.7,4.32-1.31.61-.35.87-.57,1.22-.09.26.35.48.65.74,1,.3.39.48.65-.17,1.13-1.05.83-3.4,2.01-6.41,2.01-5.28,0-8.55-4.14-8.55-9.16s3.27-9.16,8.55-9.16ZM351.62,171.68c-.13-2.53-2.22-4.8-4.88-4.8-2.92,0-5.19,2.09-5.49,4.8h10.38Z"/>
      <path class="cls-2" d="M368.01,177.53c.22-.26.44-.57.65-.83.44-.57.92-.92,1.53-.39.31.26,3.49,3.31,7.37,3.31,3.53,0,5.84-2.22,5.84-4.8,0-3.01-2.62-4.8-7.63-6.89-4.8-2.09-7.67-4.06-7.67-9.03,0-2.97,2.35-7.76,9.29-7.76,4.27,0,7.46,2.22,7.46,2.22.26.13.79.65.26,1.48-.17.26-.35.57-.52.83-.39.61-.83.78-1.53.39-.31-.17-3.05-2.01-5.71-2.01-4.62,0-6.02,2.97-6.02,4.8,0,2.92,2.22,4.62,5.89,6.15,5.89,2.4,9.68,4.62,9.68,9.68,0,4.54-4.32,7.85-9.42,7.85s-8.63-3.01-9.2-3.53c-.35-.31-.79-.65-.26-1.48Z"/>
      <path class="cls-2" d="M398.62,164.23c4.84,0,8.68,4.19,8.68,9.11s-3.84,9.2-8.68,9.2-8.68-4.19-8.68-9.2,3.84-9.11,8.68-9.11ZM398.62,179.71c3.18,0,5.67-2.83,5.67-6.37s-2.49-6.24-5.67-6.24-5.67,2.79-5.67,6.24,2.49,6.37,5.67,6.37Z"/>
      <path class="cls-2" d="M420.12,164.23c2.62,0,4.67,1.05,6.24,3.05.31.39.22.92-.17,1.22l-.83.7c-.65.61-.87.17-1.26-.17-.87-1-2.31-1.83-4.01-1.83-3.27,0-5.8,2.7-5.8,6.19s2.49,6.28,5.76,6.28c2.62,0,3.62-1.31,4.62-2.27.52-.52.83-.44,1.31-.09l.48.35c.44.31.57.79.31,1.22-1.31,2.09-3.71,3.66-6.67,3.66-4.84,0-8.94-3.88-8.94-9.11s4.23-9.2,8.98-9.2Z"/>
      <path class="cls-2" d="M431.28,154.54c0-1.18.92-2.09,2.05-2.09s2.09.92,2.09,2.09-.92,2.05-2.09,2.05-2.05-.92-2.05-2.05ZM431.89,165.49c0-.44.39-.83.83-.83h1.35c.44,0,.83.39.83.83v15.79c0,.44-.39.83-.83.83h-1.35c-.44,0-.83-.39-.83-.83v-15.79Z"/>
      <path class="cls-2" d="M447.03,171.03c1.88,0,3.71.57,3.71.57.04-3.23-.35-4.71-2.83-4.71s-4.45.65-5.23.96c-.44.17-.7-.04-.83-.44l-.35-1.09c-.17-.52.09-.79.48-.96.26-.13,2.79-1.13,6.06-1.13,4.45,0,5.54,2.27,5.54,7.37v9.68c0,.44-.39.83-.83.83h-.83c-.48,0-.61-.26-.74-.65l-.35-1.18c-.92.92-2.7,2.27-5.41,2.27-3.05,0-5.36-2.22-5.36-5.71s2.49-5.8,6.98-5.8ZM445.89,179.93c2.18,0,4.06-1.35,4.8-2.44v-3.45c-.52-.31-1.75-.7-3.66-.7-2.44,0-4.19,1.22-4.19,3.49,0,1.74,1.18,3.1,3.05,3.1Z"/>
      <path class="cls-2" d="M459.89,152.41c0-.44.39-.83.83-.83h1.35c.44,0,.83.39.83.83v28.87c0,.44-.39.83-.83.83h-1.35c-.44,0-.83-.39-.83-.83v-28.87Z"/>
      <path class="cls-2" d="M478.64,177.53c.22-.26.44-.57.65-.83.44-.57.92-.92,1.53-.39.31.26,3.49,3.31,7.37,3.31,3.53,0,5.84-2.22,5.84-4.8,0-3.01-2.62-4.8-7.63-6.89-4.8-2.09-7.67-4.06-7.67-9.03,0-2.97,2.35-7.76,9.29-7.76,4.27,0,7.46,2.22,7.46,2.22.26.13.79.65.26,1.48-.17.26-.35.57-.52.83-.39.61-.83.78-1.53.39-.31-.17-3.05-2.01-5.71-2.01-4.62,0-6.02,2.97-6.02,4.8,0,2.92,2.22,4.62,5.89,6.15,5.89,2.4,9.68,4.62,9.68,9.68,0,4.54-4.32,7.85-9.42,7.85s-8.63-3.01-9.2-3.53c-.35-.31-.78-.65-.26-1.48Z"/>
      <path class="cls-2" d="M510.38,164.23c2.62,0,4.67,1.05,6.24,3.05.31.39.22.92-.17,1.22l-.83.7c-.65.61-.87.17-1.26-.17-.87-1-2.31-1.83-4.01-1.83-3.27,0-5.8,2.7-5.8,6.19s2.49,6.28,5.76,6.28c2.62,0,3.62-1.31,4.62-2.27.52-.52.83-.44,1.31-.09l.48.35c.44.31.57.79.31,1.22-1.31,2.09-3.71,3.66-6.67,3.66-4.84,0-8.94-3.88-8.94-9.11s4.23-9.2,8.98-9.2Z"/>
      <path class="cls-2" d="M521.55,154.54c0-1.18.92-2.09,2.05-2.09s2.09.92,2.09,2.09-.92,2.05-2.09,2.05-2.05-.92-2.05-2.05ZM522.16,165.49c0-.44.39-.83.83-.83h1.35c.44,0,.83.39.83.83v15.79c0,.44-.39.83-.83.83h-1.35c-.44,0-.83-.39-.83-.83v-15.79Z"/>
      <path class="cls-2" d="M538.86,164.23c4.58,0,7.89,3.4,7.89,7.98,0,.31-.04.87-.09,1.18-.04.44-.39.74-.79.74h-12.56c.17,2.92,2.75,5.67,5.84,5.67,1.83,0,3.31-.7,4.32-1.31.61-.35.87-.57,1.22-.09.26.35.48.65.74,1,.31.39.48.65-.17,1.13-1.05.83-3.4,2.01-6.41,2.01-5.28,0-8.55-4.14-8.55-9.16s3.27-9.16,8.55-9.16ZM543.74,171.68c-.13-2.53-2.22-4.8-4.88-4.8-2.92,0-5.19,2.09-5.49,4.8h10.38Z"/>
      <path class="cls-2" d="M551.72,165.49c0-.44.39-.83.83-.83h.83c.39,0,.61.17.7.52l.39,1.35s2.49-2.31,6.11-2.31c5.06,0,6.76,3.31,6.76,7.85v9.2c0,.44-.39.83-.83.83h-1.4c-.44,0-.83-.39-.83-.83v-9.2c0-3.31-1.48-4.93-3.92-4.93-3.27,0-5.63,2.49-5.63,2.49v11.64c0,.44-.39.83-.83.83h-1.35c-.44,0-.83-.39-.83-.83v-15.79Z"/>
      <path class="cls-2" d="M581.2,164.23c2.62,0,4.67,1.05,6.24,3.05.31.39.22.92-.17,1.22l-.83.7c-.65.61-.87.17-1.26-.17-.87-1-2.31-1.83-4.01-1.83-3.27,0-5.8,2.7-5.8,6.19s2.49,6.28,5.76,6.28c2.62,0,3.62-1.31,4.62-2.27.52-.52.83-.44,1.31-.09l.48.35c.44.31.57.79.31,1.22-1.31,2.09-3.71,3.66-6.67,3.66-4.84,0-8.94-3.88-8.94-9.11s4.23-9.2,8.98-9.2Z"/>
      <path class="cls-2" d="M600.26,164.23c4.58,0,7.89,3.4,7.89,7.98,0,.31-.04.87-.09,1.18-.04.44-.39.74-.79.74h-12.56c.17,2.92,2.75,5.67,5.84,5.67,1.83,0,3.31-.7,4.32-1.31.61-.35.87-.57,1.22-.09.26.35.48.65.74,1,.31.39.48.65-.17,1.13-1.05.83-3.4,2.01-6.41,2.01-5.28,0-8.55-4.14-8.55-9.16s3.27-9.16,8.55-9.16ZM605.14,171.68c-.13-2.53-2.22-4.8-4.88-4.8-2.92,0-5.19,2.09-5.49,4.8h10.38Z"/>
      <path class="cls-2" d="M612.07,179.66c.17-.26.48-.87.61-1.09.22-.35.7-.44,1.18-.13,0,0,1.88,1.53,4.1,1.53,1.79,0,2.83-.92,2.83-2.09,0-1.53-1.31-2.22-3.84-3.49-2.31-1.13-4.97-2.66-4.97-5.63,0-1.83,1.48-4.54,5.54-4.54,2.27,0,4.01.78,4.84,1.35.39.26.52.87.26,1.35l-.35.7c-.26.48-.87.61-1.26.39,0,0-1.88-1.05-3.49-1.05-1.96,0-2.49,1-2.49,1.74,0,1.44,1.44,2.09,3.23,2.97,3.01,1.44,5.71,2.79,5.71,5.93,0,2.53-2.44,4.93-6.02,4.93-2.92,0-4.71-1.22-5.67-1.96-.22-.17-.35-.61-.22-.92Z"/>
    </g>
    <circle class="cls-3" cx="134.33" cy="117.03" r="19.19" transform="translate(-34.56 60.31) rotate(-22.5)"/>
    <path class="cls-3" d="M213.36,134.5c0-42.54-34.48-77.02-77.02-77.02s-77.02,34.48-77.02,77.02,34.48,77.02,77.02,77.02c.12,0,.23,0,.35,0,1.15,0,2.3-.04,3.44-.09.24-.01,3.15-.2,4.35-.33,4.03-.43,7.88-2.2,10.49-5.31,2.02-2.41,3.19-5.29,3.19-8.56s-2.11-11.99-15.78-11.99c-6.1,0-12.41,0-18.51.42-18.75.19-34.84-6.23-34.28-24.82.48-16.19,14.93-23.98,14.93-23.98,0,0-6.52-7.78-6.52-20.4,0-19.56,14.72-36.81,36.18-36.81h36.81c2.21,0,4,1.79,4,4v5.26c0,1.47-.84,3.37-2.31,3.57l-11.57,3.16s9.05,6.73,9.05,22.5c0,17.88-13.88,34.28-35.76,34.28-10.73,0-16.61-3.37-18.3-3.37-1.47,0-8.63,3.57-8.63,10.31,0,4.84,3.79,8.62,10.1,8.62h28.6c18.3,0,33.02,9.89,33.02,28.18,0,.8-.04,1.61-.11,2.41,20.67-13.81,34.29-37.35,34.29-64.08Z"/>
    <path class="cls-1" d="M146.16,167.98h-28.6c-6.31,0-10.1-3.78-10.1-8.62,0-6.73,7.15-10.31,8.63-10.31,1.68,0,7.57,3.37,18.3,3.37,21.87,0,35.76-16.41,35.76-34.28,0-15.77-9.05-22.5-9.05-22.5l11.57-3.16c1.47-.21,2.31-2.1,2.31-3.57v-5.26c0-2.21-1.79-4-4-4h-36.81c-21.45,0-36.18,17.25-36.18,36.81,0,12.62,6.52,20.4,6.52,20.4,0,0-14.45,7.79-14.93,23.98-.56,18.59,15.54,25.01,34.28,24.82,6.1-.42,12.41-.42,18.51-.42,13.67,0,15.78,8.62,15.78,11.99s-1.17,6.15-3.19,8.56c-2.61,3.11-6.46,4.88-10.49,5.31h.06c2.37-.19,4.7-.61,6.99-1.07.28-.06.55-.12.83-.17.93-.2,1.84-.41,2.76-.64.24-.06.48-.12.72-.18,1.14-.3,2.27-.61,3.39-.96.05-.02.1-.03.16-.05,1.04-.33,2.07-.68,3.1-1.05.27-.1.54-.2.8-.3.87-.33,1.74-.67,2.6-1.02.21-.09.43-.17.65-.27,1.06-.45,2.11-.93,3.15-1.42.11-.05.21-.11.31-.16.92-.45,1.82-.91,2.72-1.39.25-.13.5-.27.74-.41.84-.46,1.67-.94,2.48-1.43.16-.1.32-.19.48-.28.9-.55,1.79-1.12,2.67-1.71.06-.79.11-1.6.11-2.41,0-18.3-14.72-28.18-33.02-28.18ZM134.33,97.84c10.6,0,19.19,8.59,19.19,19.19s-8.59,19.19-19.19,19.19-19.19-8.59-19.19-19.19,8.59-19.19,19.19-19.19Z"/>
  </g>
</svg>