<?xml version="1.0" encoding="UTF-8" standalone="no"?>
<!DOCTYPE svg PUBLIC "-//W3C//DTD SVG 1.1//EN" "http://www.w3.org/Graphics/SVG/1.1/DTD/svg11.dtd">
<svg width="100%" height="100%" viewBox="0 0 4489 2363" version="1.1" xmlns="http://www.w3.org/2000/svg" xmlns:xlink="http://www.w3.org/1999/xlink" xml:space="preserve" xmlns:serif="http://www.serif.com/" style="fill-rule:evenodd;clip-rule:evenodd;stroke-linejoin:round;stroke-miterlimit:2;">
    <g id="logo-light" transform="matrix(1.05556,0,0,0.757508,-374.016,662.285)">
        <rect x="354.331" y="-874.294" width="4251.97" height="3118.39" style="fill:none;"/>
        <g transform="matrix(1.08271,0,0,1.58349,-364.987,-1092.04)">
            <path d="M2612.1,1384.26L2524.61,1417.57L2524.61,826.772L4074.8,826.772C4302.96,826.772 4488.19,1003.25 4488.19,1220.63C4488.19,1262.11 4481.44,1302.1 4468.95,1339.66L4433.93,1339.66L4428.02,1345.67C4424.63,1348.98 4421.98,1351.29 4421.98,1350.99C4421.98,1350.59 4419.86,1352.19 4417.22,1354.6L4412.35,1358.91L4411.92,1422.88L4380.69,1423.48L4380.48,1402.63L4380.16,1381.77L4367.14,1381.17L4365.97,1379.86L4364.82,1378.66L4364.6,1347.98L4362.27,1348.68C4361.11,1348.98 4358.56,1349.48 4356.87,1349.78L4353.59,1350.38L4351.8,1344.97L4349.99,1339.46L4349.99,1336.15C4349.99,1334.34 4349.46,1329.93 4348.83,1326.42L4347.66,1320.1L4283.41,1320.3L4219.26,1320.61L4218.63,1328.63L4217.36,1330.03L4216.19,1331.33L4215.34,1337.05C4214.92,1340.16 4214.28,1344.47 4213.75,1346.67L4212.9,1350.69L4210.48,1351.79L4208.14,1352.89L4208.78,1353.39L4209.41,1354L4207.19,1354.7L4204.97,1355.3L4203.27,1354.3L4200.31,1355.8L4197.34,1357.2L4187.4,1357.2L4186.34,1358.11C4185.8,1358.61 4183.58,1359.51 4181.47,1360.21L4177.44,1361.41L4177.44,1383.17L4175.33,1388.39L4154.69,1387.79L4154.37,1292.83L4154.16,1197.77L4111.92,1197.77L4111.29,1173.21L4089.05,1172.61L4087.04,1170.7L4086.83,1165.89C4086.83,1163.28 4086.61,1160.57 4086.51,1159.97L4086.4,1158.67L4063.12,1158.67L4063.12,1160.47C4063.12,1160.73 4063.11,1161.62 4063.08,1163L4063.07,1163.08L4063.07,1163.65C4062.99,1167.28 4062.87,1173.53 4062.79,1180.23L4062.59,1198.28L4054.12,1198.28L4053.8,1279.39L4053.59,1360.51L4052.32,1361.92L4051.15,1363.32L4023.43,1362.72L4022.36,1334.04L4020.04,1332.64L4019.29,1327.62L4018.66,1322.61L4017.6,1322.31L4016.54,1321.91L4016.54,1314.29L4013.37,1311.88L4013.37,1306.17L4010.82,1300.95L4009.24,1301.25L4007.54,1301.55L4007.23,1304.06C4007.01,1305.46 4006.49,1307.07 4005.96,1307.57C4005.53,1308.17 4004.79,1310.48 4004.36,1312.78L4003.62,1317.1L4002.67,1317.7L4001.72,1318.2L4001.72,1323.21L4000.23,1325.92C3999.49,1327.42 3998.44,1330.53 3998.12,1332.74L3997.38,1336.85L3995.05,1338.05L3992.72,1339.15L3976.31,1339.36L3959.91,1339.66L3959.59,1344.87L3959.27,1349.98L3958,1350.89L3956.72,1351.69L3934.5,1350.69L3933.23,1343.07L3930.79,1340.76L3930.79,1334.64L3929.21,1331.74L3927.62,1328.93L3927.62,1322.31L3926.56,1321.91L3925.39,1321.61L3924.98,1318.6L3924.86,1317.73L3924.86,1317.72C3924.69,1316.37 3924.55,1315.22 3924.55,1314.89L3924.45,1314.09L3920.32,1314.09L3919.15,1312.18L3918.1,1310.18L3918.1,1087.08L3912.8,1087.08L3912.8,1061.01L3887.96,1061.01L3887.96,983.798L3881.04,983.798L3881.04,1061.01L3829.17,1061.01L3829.17,1087.08L3819.12,1087.08L3818.58,1220.84C3818.27,1295.04 3817.95,1355.8 3817.74,1356C3817.64,1356.1 3810.53,1356.2 3801.97,1356.2L3786.3,1356.2L3785.03,1355.4L3783.86,1354.7L3783.45,1351.69L3783.12,1348.78L3778.89,1345.97C3776.56,1344.47 3773.39,1342.96 3771.79,1342.66L3769.04,1342.06L3764.39,1337.25C3761.85,1334.64 3754.85,1327.02 3748.83,1320.3L3737.71,1308.07L3736.97,1308.27C3736.55,1308.47 3731.46,1313.29 3725.65,1319.1L3715.16,1329.63L3714.42,1331.93L3713.68,1334.14L3712.73,1334.14C3710.93,1334.14 3710.72,1332.34 3710.51,1312.58L3710.29,1292.53L3706.8,1287.42L3703.41,1282.2L3700.98,1280.6C3699.6,1279.69 3697.7,1278.99 3696.74,1278.99L3694.94,1278.99L3692.19,1282.1C3690.71,1283.81 3689.44,1285.81 3689.44,1286.51C3689.44,1287.21 3688.8,1288.52 3687.96,1289.22L3686.47,1290.62L3686.05,1310.98L3685.52,1331.23L3683.19,1333.44L3675.99,1326.02C3673.39,1323.43 3670.13,1320.08 3667.35,1317.23L3667.26,1317.13L3667.25,1317.12L3667.2,1317.08L3665.92,1315.76L3664.74,1314.56L3663.97,1313.77L3663.4,1313.18L3658,1307.67L3651.22,1314.59C3647.52,1318.3 3644.13,1322.11 3643.81,1323.01C3643.39,1323.91 3642.01,1325.52 3640.74,1326.62C3639.37,1327.72 3636.4,1330.83 3634.18,1333.64L3629.95,1338.55L3624.65,1341.86C3621.8,1343.67 3618.83,1345.17 3618.09,1345.17L3616.82,1345.17L3611.1,1350.79L3611.1,1368.93L3608.35,1373.85C3606.87,1376.56 3604.96,1379.46 3604.22,1380.27C3603.48,1381.07 3601.58,1384.18 3599.99,1387.08C3598.4,1389.89 3596.81,1392.3 3596.39,1392.3C3595.01,1392.3 3591.41,1387.99 3587.71,1382.27C3585.81,1379.26 3583.79,1376.56 3583.37,1376.15L3582.52,1375.65L3582.31,1309.98L3581.99,1244.4L3570.35,1243.4L3569.82,1233.29L3569.82,1213.3C3555.19,1208.49 3532.42,1205.39 3506.83,1205.39C3462.69,1205.39 3426.91,1214.6 3426.91,1225.95C3426.91,1226.08 3426.92,1226.2 3426.93,1226.33L3426.91,1226.35L3426.59,1317.6L3426.38,1408.84L3420.45,1409.04L3420.03,1408.24L3419.5,1407.44L3413.68,1406.84L3407.86,1406.13L3408.39,1405.33L3408.91,1404.63L3403.3,1403.93C3400.34,1403.53 3395.26,1402.53 3392.3,1401.72L3386.68,1400.22L3386.68,1369.14L3382.87,1365.63C3380.76,1363.72 3378.53,1362.22 3378,1362.22L3377.05,1362.22L3377.58,1361.41L3378.11,1360.51L3376.31,1358.11C3375.36,1356.8 3374.51,1355.1 3374.3,1354.4C3374.19,1353.59 3373.45,1352.29 3372.71,1351.39C3371.87,1350.38 3369.64,1346.78 3367.74,1343.17C3365.72,1339.56 3363.4,1335.85 3362.34,1334.84L3360.54,1332.94L3358.21,1336.65L3358.02,1336.98L3358.01,1336.99C3356.93,1338.85 3355.99,1340.48 3355.99,1340.76C3355.99,1341.06 3354.08,1344.07 3351.64,1347.38C3349.32,1350.79 3346.46,1355.2 3345.29,1357.1C3342.01,1362.82 3340.74,1364.62 3339.37,1365.53L3337.99,1366.33L3337.99,1389.79L3337.14,1390.79C3336.72,1391.4 3334.82,1392.9 3332.91,1394.2L3329.41,1396.51L3324.34,1395.31L3312.16,1384.18C3305.39,1378.06 3299.88,1373.35 3299.88,1373.75C3299.88,1374.15 3298.08,1372.85 3295.96,1370.84C3293.74,1368.84 3291.41,1367.23 3290.78,1367.23C3290.14,1367.23 3288.34,1368.43 3286.76,1369.94C3285.27,1371.34 3283.79,1372.34 3283.58,1372.14C3282.52,1370.84 3279.77,1364.72 3279.77,1363.42C3279.77,1362.72 3279.13,1360.61 3278.39,1358.91C3276.17,1353.89 3274.26,1348.88 3273.74,1346.17C3273.42,1344.77 3272.46,1341.96 3271.51,1339.96L3269.82,1336.15L3266.64,1335.64L3263.36,1335.04L3171.69,1336.05L3169.04,1335.04L3166.39,1334.14L3166.29,1322.91C3166.29,1316.69 3165.87,1301.65 3165.23,1289.52C3164.7,1277.39 3164.17,1254.73 3164.07,1239.09L3163.85,1210.71L3161.74,1210.31C3160.57,1210.01 3157.5,1209.71 3154.86,1209.61L3150.09,1209.31L3149.56,1201.79L3149.56,1195.37L3137.92,1195.37L3137.92,1209.4L3129.98,1209.91L3125.53,1213.92L3124.79,1261.75L3123.95,1309.58L3122.99,1310.68L3121.93,1311.88L3121.51,1351.09C3121.19,1372.64 3120.98,1390.79 3120.98,1391.3L3120.98,1392.3L3074.4,1392.3L3074.4,1346.58L3065.51,1341.76C3060.64,1339.15 3055.99,1336.35 3055.24,1335.55L3053.97,1334.04L3053.23,1326.82L3052.6,1319.6L3050.06,1315.19L3050.06,1310.38C3050.06,1307.77 3049.63,1303.96 3049,1302.06C3048.47,1300.15 3047.83,1295.74 3047.62,1292.23C3047.3,1288.72 3046.88,1285.61 3046.46,1285.31L3045.82,1284.61L3043.92,1286.31L3042.12,1288.12L3041.8,1300.35L3041.38,1312.58L3040.32,1313.89L3039.15,1315.09L3038.1,1334.24L3035.87,1335.64C3034.6,1336.35 3030.58,1338.45 3026.77,1340.36L3019.89,1343.87L3019.78,1358.51L3019.57,1373.25L3018.3,1376.46L2990.99,1375.65L2989.4,1374.35L2987.71,1373.05L2986.86,1368.93L2985.91,1364.72L2982.31,1364.12L2981.25,1366.63L2980.19,1369.24L2979.34,1369.24C2978.81,1369.24 2977.12,1368.13 2975.64,1366.83L2972.78,1364.32L2908.42,1363.72L2907.68,1363.12L2907.04,1362.42L2907.25,1311.28L2903.97,1306.07L2900.8,1300.95L2900.8,1295.94L2891.27,1286.31L2891.48,1260.64L2888.73,1258.14L2886.08,1255.53L2884.92,1258.34C2884.39,1259.84 2883.86,1261.65 2883.86,1262.45C2883.86,1263.25 2883.33,1264.15 2882.8,1264.45L2881.64,1265.15L2882.38,1276.29L2883.01,1287.52L2879.2,1290.92L2875.5,1294.33L2875.92,1295.04L2876.45,1295.84L2873.27,1298.25L2873.27,1304.06L2872.53,1304.06C2872,1304.06 2870.84,1305.46 2869.89,1307.17L2867.98,1310.28L2867.98,1350.18L2861.42,1361.21L2852.31,1361.21L2843.11,1361.11L2841.52,1359.91C2840.67,1359.21 2839.4,1357.81 2838.76,1356.7L2837.6,1354.7L2834.42,1354.1L2827.97,1360.01L2821.4,1365.83L2821.4,1386.08L2813.46,1386.78L2805.63,1387.49L2800.55,1386.68L2795.47,1385.78L2795.47,1340.06L2793.88,1339.15L2792.29,1338.15L2769.53,1338.15L2767.95,1334.94C2767.2,1333.14 2766.25,1330.43 2765.93,1329.03L2765.3,1326.42L2751.54,1313.18L2746.03,1310.38C2743.07,1308.87 2740.21,1307.67 2739.79,1307.77C2739.36,1307.87 2738.41,1307.37 2737.78,1306.57L2736.51,1305.06L2730.58,1305.06L2727.61,1303.56L2724.54,1302.06L2719.78,1302.06L2718.72,1299.65L2717.77,1297.14L2712.79,1296.44L2707.92,1295.74L2701.89,1296.34L2695.96,1296.94L2693.84,1299.55L2691.62,1302.06L2686.12,1302.06L2683.58,1305.06L2680.19,1305.06L2676.91,1305.16L2674.9,1306.57C2673.73,1307.37 2672.25,1308.07 2671.51,1308.07C2670.77,1308.07 2667.06,1310.18 2663.25,1312.68L2656.37,1317.2L2651.5,1322.41L2646.74,1327.62L2646.74,1332.14L2644.62,1332.14L2644.62,1335.85L2642.72,1337.45L2640.7,1339.15L2619.69,1339.15C2618.88,1344.9 2617.1,1356.33 2617.1,1356.33L2617.1,1360.81L2616.16,1361.99L2613.78,1375.43L2613.6,1383.27L2612.44,1384.08L2612.1,1384.26Z" style="fill:rgb(0,89,138);"/>
        </g>
        <g transform="matrix(0.944219,0,0,1.05609,361.026,-687.191)">
            <path d="M2395.4,601.386C2373.86,601.386 2353.86,596.802 2335.4,587.636C2316.94,578.469 2300.78,565.573 2286.94,548.948C2273.09,532.323 2262.34,512.844 2254.68,490.511C2247.02,468.177 2243.19,444.011 2243.19,418.011C2243.19,391.761 2247.02,367.532 2254.68,345.323C2262.34,323.115 2273.04,303.844 2286.79,287.511C2300.53,271.177 2316.59,258.407 2334.95,249.198C2353.31,239.99 2373.26,235.386 2394.8,235.386C2417.14,235.386 2437.3,239.802 2455.3,248.636C2473.29,257.469 2489.01,269.636 2502.45,285.136L2454.59,345.136C2447.7,335.802 2439.31,328.469 2429.41,323.136C2419.51,317.802 2407.97,315.136 2394.8,315.136C2383.29,315.136 2372.74,317.511 2363.14,322.261C2353.54,327.011 2345.28,333.907 2338.36,342.948C2331.43,351.99 2326.05,362.865 2322.2,375.573C2318.36,388.282 2316.43,402.427 2316.43,418.011C2316.43,433.844 2318.36,448.115 2322.2,460.823C2326.05,473.532 2331.43,484.407 2338.36,493.448C2345.28,502.49 2353.54,509.448 2363.14,514.323C2372.74,519.198 2383.29,521.636 2394.8,521.636C2408.11,521.636 2419.81,519.073 2429.91,513.948C2440.01,508.823 2448.71,501.469 2456,491.886L2504.16,551.886C2490.31,567.469 2474.59,579.615 2457,588.323C2439.41,597.032 2418.88,601.386 2395.4,601.386Z" style="fill:rgb(3,74,112);fill-rule:nonzero;"/>
            <path d="M2535.26,595.636L2535.26,241.136L2607,241.136L2607,595.636L2535.26,595.636ZM2592.25,595.636L2592.25,518.761L2729.21,518.761L2729.21,595.636L2592.25,595.636Z" style="fill:rgb(3,74,112);fill-rule:nonzero;"/>
            <path d="M2762.62,595.636L2762.62,241.136L2834.36,241.136L2834.36,595.636L2762.62,595.636ZM2819.31,595.636L2819.31,520.261L2973.62,520.261L2973.62,595.636L2819.31,595.636ZM2819.31,451.511L2819.31,378.136L2959.07,378.136L2959.07,451.511L2819.31,451.511ZM2819.31,316.511L2819.31,241.136L2971.31,241.136L2971.31,316.511L2819.31,316.511Z" style="fill:rgb(3,74,112);fill-rule:nonzero;"/>
            <path d="M3014.15,595.636L3014.15,241.136L3085.89,241.136L3085.89,595.636L3014.15,595.636ZM3070.84,463.261L3070.84,387.886L3211.91,387.886L3211.91,463.261L3070.84,463.261ZM3070.84,316.511L3070.84,241.136L3218.13,241.136L3218.13,316.511L3070.84,316.511Z" style="fill:rgb(3,74,112);fill-rule:nonzero;"/>
            <path d="M3309.44,547.011L3420.81,405.511C3426.36,398.427 3430.86,391.948 3434.3,386.073C3437.74,380.198 3440.22,374.636 3441.72,369.386C3443.23,364.136 3443.98,358.719 3443.98,353.136C3443.98,340.469 3440.7,330.469 3434.15,323.136C3427.6,315.802 3418.93,312.136 3408.16,312.136C3398,312.136 3388.73,315.74 3380.37,322.948C3372.01,330.157 3363.51,342.094 3354.89,358.761L3307.73,306.636C3319.3,283.219 3334.07,265.49 3352.03,253.448C3369.99,241.407 3390.54,235.386 3413.68,235.386C3434.28,235.386 3452.09,240.032 3467.11,249.323C3482.13,258.615 3493.7,271.823 3501.83,288.948C3509.95,306.073 3514.02,326.302 3514.02,349.636C3514.02,363.552 3512.56,376.448 3509.65,388.323C3506.74,400.198 3502.04,411.886 3495.55,423.386C3489.07,434.886 3480.54,447.052 3469.97,459.886L3396.22,549.261L3309.44,547.011ZM3309.44,595.636L3309.44,547.011L3369.34,521.261L3519.93,521.261L3519.93,595.636L3309.44,595.636Z" style="fill:rgb(3,74,112);fill-rule:nonzero;"/>
            <path d="M3666.63,601.386C3642.88,601.386 3621.64,593.595 3602.91,578.015C3584.18,562.434 3569.4,540.822 3558.56,513.179C3547.73,485.536 3542.31,453.771 3542.31,417.886C3542.31,381.969 3547.66,350.286 3558.36,322.835C3569.06,295.385 3583.7,273.947 3602.29,258.523C3620.89,243.098 3642.06,235.386 3665.81,235.386C3689.83,235.386 3711.19,243.094 3729.89,258.511C3748.58,273.927 3763.28,295.375 3773.98,322.855C3784.68,350.334 3790.03,382.188 3790.03,418.417C3790.03,454.563 3784.68,486.39 3773.98,513.898C3763.28,541.405 3748.65,562.864 3730.1,578.273C3711.54,593.681 3690.38,601.386 3666.63,601.386ZM3666.13,524.136C3677.03,524.136 3686.36,520.094 3694.11,512.011C3701.87,503.927 3707.83,491.99 3711.97,476.198C3716.12,460.407 3718.19,441.097 3718.19,418.269C3718.19,395.513 3716.12,376.302 3711.97,360.636C3707.83,344.969 3701.86,333.052 3694.06,324.886C3686.27,316.719 3676.85,312.636 3665.78,312.636C3655.17,312.636 3645.97,316.657 3638.18,324.698C3630.39,332.74 3624.43,344.573 3620.32,360.198C3616.2,375.823 3614.15,395.034 3614.15,417.831C3614.15,440.701 3616.2,460.032 3620.32,475.823C3624.43,491.615 3630.39,503.615 3638.18,511.823C3645.97,520.032 3655.29,524.136 3666.13,524.136Z" style="fill:rgb(3,74,112);fill-rule:nonzero;"/>
            <path d="M3809.6,547.011L3920.97,405.511C3926.52,398.427 3931.02,391.948 3934.46,386.073C3937.91,380.198 3940.38,374.636 3941.89,369.386C3943.39,364.136 3944.15,358.719 3944.15,353.136C3944.15,340.469 3940.87,330.469 3934.31,323.136C3927.76,315.802 3919.1,312.136 3908.33,312.136C3898.16,312.136 3888.89,315.74 3880.53,322.948C3872.17,330.157 3863.68,342.094 3855.05,358.761L3807.89,306.636C3819.46,283.219 3834.23,265.49 3852.19,253.448C3870.15,241.407 3890.7,235.386 3913.85,235.386C3934.45,235.386 3952.26,240.032 3967.27,249.323C3982.29,258.615 3993.86,271.823 4001.99,288.948C4010.12,306.073 4014.18,326.302 4014.18,349.636C4014.18,363.552 4012.72,376.448 4009.81,388.323C4006.9,400.198 4002.2,411.886 3995.72,423.386C3989.23,434.886 3980.7,447.052 3970.13,459.886L3896.39,549.261L3809.6,547.011ZM3809.6,595.636L3809.6,547.011L3869.5,521.261L4020.1,521.261L4020.1,595.636L3809.6,595.636Z" style="fill:rgb(3,74,112);fill-rule:nonzero;"/>
            <path d="M4147.82,601.386C4127.49,601.386 4109.18,595.907 4092.89,584.948C4076.6,573.99 4063.71,559.157 4054.21,540.448C4044.71,521.74 4039.96,500.719 4039.96,477.386C4039.96,448.386 4048.02,419.177 4064.14,389.761L4145.61,241.136L4225.78,241.136L4133.38,400.761L4106.59,397.886C4110.67,389.719 4114.78,382.698 4118.93,376.823C4123.07,370.948 4128.26,366.386 4134.48,363.136C4140.7,359.886 4148.79,358.261 4158.76,358.261C4176.89,358.261 4193.22,363.511 4207.77,374.011C4222.32,384.511 4233.96,398.677 4242.69,416.511C4251.42,434.344 4255.78,454.469 4255.78,476.886C4255.78,500.302 4251.02,521.407 4241.48,540.198C4231.95,558.99 4219.08,573.886 4202.86,584.886C4186.64,595.886 4168.29,601.386 4147.82,601.386ZM4147.82,525.636C4155.38,525.636 4162.12,523.448 4168.04,519.073C4173.96,514.698 4178.61,508.636 4181.99,500.886C4185.36,493.136 4187.05,484.386 4187.05,474.636C4187.05,464.886 4185.36,456.157 4181.99,448.448C4178.61,440.74 4173.96,434.719 4168.04,430.386C4162.12,426.052 4155.38,423.886 4147.82,423.886C4140.26,423.886 4133.52,426.073 4127.61,430.448C4121.69,434.823 4117.05,440.844 4113.71,448.511C4110.36,456.177 4108.69,464.886 4108.69,474.636C4108.69,484.386 4110.36,493.136 4113.71,500.886C4117.05,508.636 4121.69,514.698 4127.61,519.073C4133.52,523.448 4140.26,525.636 4147.82,525.636Z" style="fill:rgb(3,74,112);fill-rule:nonzero;"/>
        </g>
        <g transform="matrix(0.944219,0,0,1.05609,361.026,1027.92)">
            <path d="M2800.64,601.386C2781.91,601.386 2765.8,597.302 2752.28,589.136C2738.77,580.969 2726.93,569.302 2716.76,554.136L2763.42,496.886C2768.37,505.052 2774.07,511.219 2780.53,515.386C2786.98,519.552 2794.36,521.636 2802.65,521.636C2809.94,521.636 2816.45,519.74 2822.17,515.948C2827.89,512.157 2832.43,506.49 2835.81,498.948C2839.19,491.407 2840.88,481.886 2840.88,470.386L2840.88,241.136L2912.92,241.136L2912.92,466.261C2912.92,494.094 2908.39,518.094 2899.32,538.261C2890.26,558.427 2877.37,573.99 2860.64,584.948C2843.92,595.907 2823.92,601.386 2800.64,601.386Z" style="fill:rgb(3,74,112);fill-rule:nonzero;"/>
            <path d="M2959.17,595.636L2959.17,241.136L3030.91,241.136L3030.91,595.636L2959.17,595.636ZM3015.86,595.636L3015.86,520.261L3170.17,520.261L3170.17,595.636L3015.86,595.636ZM3015.86,451.511L3015.86,378.136L3155.62,378.136L3155.62,451.511L3015.86,451.511ZM3015.86,316.511L3015.86,241.136L3167.87,241.136L3167.87,316.511L3015.86,316.511Z" style="fill:rgb(3,74,112);fill-rule:nonzero;"/>
            <path d="M3210.71,595.636L3210.71,241.136L3260.87,241.136L3282.45,313.886L3282.45,595.636L3210.71,595.636ZM3406.86,595.636L3240.51,332.636L3260.87,241.136L3427.23,504.136L3406.86,595.636ZM3406.86,595.636L3388.3,521.011L3388.3,241.136L3460.04,241.136L3460.04,595.636L3406.86,595.636Z" style="fill:rgb(3,74,112);fill-rule:nonzero;"/>
            <path d="M3489.64,595.636L3600.1,241.136L3669.53,241.136L3778.9,595.636L3703.85,595.636L3621.47,297.886L3647.36,297.886L3563.28,595.636L3489.64,595.636ZM3556.86,533.761L3556.86,462.761L3713.88,462.761L3713.88,533.761L3556.86,533.761Z" style="fill:rgb(3,74,112);fill-rule:nonzero;"/>
        </g>
        <g transform="matrix(1.17726,0,0,1.64046,34.2807,-1326.69)">
            <path d="M1222.32,370.817C1694.43,370.817 2077.73,754.115 2077.73,1226.23C2077.73,1698.35 1694.43,2081.64 1222.32,2081.64C750.204,2081.64 366.906,1698.35 366.906,1226.23C366.906,754.115 750.204,370.817 1222.32,370.817ZM1222.32,465.863C802.661,465.863 461.952,806.572 461.952,1226.23C461.952,1645.89 802.661,1986.6 1222.32,1986.6C1641.98,1986.6 1982.69,1645.89 1982.69,1226.23C1982.69,806.572 1641.98,465.863 1222.32,465.863ZM1070.38,1062.81C1089.72,1083.91 1086.62,1119.66 1064.73,1137.93C1037.71,1160.5 997.803,1157.02 983.154,1123.35C972.061,1097.85 982.627,1070.47 1002.93,1057.1C1023.45,1043.58 1053.85,1044.3 1070.38,1062.81ZM1215.59,1041.03L1240.93,1043.87C1240.93,1043.87 1237.26,1068.25 1232.84,1086.02C1218.17,1144.94 1156.91,1219.38 1103.01,1248.26C1096.66,1251.66 1074.99,1259.21 1074.99,1259.21L1068.15,1238.97C1068.15,1238.97 1083.97,1233.89 1094.44,1227.46C1148.28,1194.4 1200.55,1130.91 1211.51,1066.84C1212.5,1061.1 1215.59,1041.03 1215.59,1041.03ZM1416.49,1245.76C1416.49,1245.76 1407.38,1240.23 1408.95,1231.47C1412.4,1212.26 1417.65,1187.73 1417.15,1168.09C1416.89,1158.25 1429.08,1161.16 1429.08,1161.16C1431.02,1180.21 1425.88,1218.05 1416.49,1245.76ZM896.264,1105.11C911.445,1095.38 925.679,1100.6 930.248,1111.78C935.18,1123.85 929.33,1140.99 912.477,1140.67C893.168,1140.3 884.303,1122.72 896.264,1105.11ZM1408.64,1269.29C1399.69,1299.59 1382.44,1326.78 1358.43,1346.15C1350.37,1338.12 1352.72,1331.34 1358.99,1325.58C1377.09,1308.96 1383.83,1298.12 1392.97,1274.43C1395.76,1267.2 1403.14,1266.44 1408.64,1269.29ZM972.098,930.395C984.675,942.957 976.375,964.37 961.619,980.634C945.848,998.015 922.704,1009.51 909.788,998.046C895.857,985.675 905.611,960.951 922.047,943.557C937.539,927.162 958.969,917.279 972.098,930.395ZM1601.61,1783.8C1590.16,1771.22 1571.36,1766.18 1548.09,1765.61C1548.09,1765.61 1408.21,1461.78 1408.62,1459.41C1440.4,1457.37 1483.02,1442.42 1507.5,1412.96C1507.5,1412.96 1514.03,1417.57 1519.71,1418.84C1512.92,1434.58 1509.06,1447.34 1525.35,1458.87C1548.06,1474.93 1567.88,1459.39 1585.95,1431.64C1602.03,1443.62 1615.69,1430.61 1619.68,1422.91C1625.83,1411.02 1625.46,1395.73 1612.29,1385.86C1620.47,1367.73 1632.39,1349.21 1613.74,1334.45C1597.18,1321.34 1583.15,1318.79 1568.88,1335.51C1561.52,1330.98 1553.75,1325.11 1553.75,1325.11C1572.92,1283.63 1561.12,1237.94 1547.22,1206.53C1527.04,1160.94 1471.7,1112.54 1426.04,1111.52C1426.04,1111.52 1427.93,1126.23 1427.83,1134.71C1409.25,1132.79 1417.05,1109.92 1405.4,1100.56C1391.47,1089.37 1367.05,1072.81 1344.56,1055.66L1367.99,1007.48C1393.15,1019.8 1402.13,1012.77 1409.51,998.945C1415.08,988.505 1410.75,977.588 1389.71,965.433C1381.26,960.545 1386.75,950.574 1389.61,944.75L1404.7,951.31C1420.53,958.967 1434.07,932.827 1419.32,925.413L1373.23,901.629C1356.16,894.846 1346.51,916.191 1359.78,925.053L1372.01,933.061C1368.55,944.839 1363.06,950.647 1355.59,946.953C1339.65,939.083 1325.78,929.094 1313.89,945.856C1299.71,965.85 1311.57,974.686 1333.86,985.205L1308.2,1036.44C1285.4,1022.77 1272.95,1011.64 1242.24,1002.71C1235.63,1000.79 1214.32,1001.25 1214.32,1001.25C1214.32,1001.25 1212.24,999.198 1210.94,993.811C1209.5,987.803 1200.12,967.163 1196.18,959.448C1179.31,926.407 1145.42,893.743 1111.74,878.277C1120.2,856.777 1118.55,842.977 1095.41,833.701C1066.19,821.98 1052.75,825.434 1041.14,857.011C999.928,849.889 952.095,865.216 917.508,888.177C910.413,892.889 877.48,920.868 877.48,920.868C862.764,914.939 844.203,909.558 828.681,935.589C813.082,961.749 823.374,980.064 840.392,987.395C816.869,1060.2 840.1,1138.33 894.825,1190.3C899.434,1194.68 918.47,1209.54 918.47,1209.54C912.499,1217.45 905.161,1245.67 940.145,1261.07C973.769,1275.86 985.883,1250.96 990.132,1239.59L1026.27,1243.64C1025.1,1256.41 1034.52,1272.33 1041.58,1282.8C1050.75,1296.37 1057.98,1307.85 1072.35,1315.85C1082.06,1321.25 1117.13,1340.15 1117.13,1340.15L912.121,1765.44C882.47,1765.4 867.309,1775.91 859.826,1790.54L853.108,1790.54C774.324,1738.86 706.993,1671.13 655.778,1592.02C720.243,1624.31 802.212,1651.1 896.071,1670.04L921.435,1617.42C820.948,1598.33 734.208,1569.9 668.64,1534.84C638.004,1518.46 611.987,1491.91 592.042,1466.48C583.433,1443.93 575.999,1420.81 569.816,1397.18C555.53,1342.58 547.923,1285.29 547.923,1226.23C547.923,854.021 850.11,551.834 1222.32,551.834C1594.53,551.834 1896.72,854.021 1896.72,1226.23C1896.72,1285.29 1889.11,1342.58 1874.82,1397.18C1868.64,1420.81 1861.21,1443.93 1852.6,1466.48C1832.65,1491.91 1806.63,1518.46 1776,1534.84C1714.11,1567.93 1633.37,1595.12 1540,1614.12C1548.44,1632.54 1556.67,1650.47 1564.17,1666.8C1651.52,1648.09 1727.99,1622.5 1788.86,1592.02C1739.84,1667.74 1676.06,1733.03 1601.61,1783.8ZM711.024,1049.12C709.566,1049.25 707.586,1050.4 706.479,1051.4C697.656,1059.41 697.996,1097.45 686.527,1109.58C675.168,1121.59 638.743,1123.73 633.686,1131.37C630.164,1136.69 631.019,1140.64 636.503,1143.82C651.647,1152.6 685.307,1150.96 693.052,1170.59C696.815,1180.13 701.51,1216.4 707.111,1220.75C711.623,1224.25 716.175,1223.01 718.952,1218.38C731.257,1197.92 722.269,1167.75 750.343,1156.04C760.102,1151.97 798.314,1147.79 790.612,1132.05C786.885,1124.44 749.696,1121.96 738.444,1109.58C727.278,1097.29 726.807,1058.98 716.756,1051.39C715.127,1050.16 713.158,1048.93 711.024,1049.12ZM1801.33,1283.07C1789.72,1271.91 1789.18,1230.66 1780.88,1224.48C1774.18,1219.48 1770.8,1226.5 1768.7,1231.6C1763.37,1244.51 1760.59,1268.13 1753.07,1278.52C1742.31,1293.39 1701.36,1294.83 1698.61,1303.98C1694.27,1318.4 1727.7,1321 1737.7,1324.99C1768.99,1337.48 1755.76,1371.29 1774.19,1392.78C1776.23,1393.48 1778.02,1393.13 1779.92,1392.19C1791.18,1386.6 1786.72,1337.8 1808.46,1326.96C1817.5,1322.46 1853.34,1317.37 1854.28,1306.72C1854.49,1304.36 1854.41,1303.72 1852.97,1301.78C1847.51,1294.4 1811.51,1292.85 1801.33,1283.07ZM1465.53,887.424C1469.6,891.483 1475.93,889.894 1478.78,885.017C1487.26,870.527 1484.63,838.211 1499.76,824.412C1512.25,813.02 1554.87,814.84 1555.05,798.103C1555.14,788.922 1518.82,784.428 1510.29,781.052C1481.25,769.558 1489.94,737.575 1478.63,715.512C1475.34,709.104 1468.3,709.279 1463.37,713.806C1457.75,730.331 1456.52,761.922 1444.36,774.217C1432.41,786.299 1393.95,786.923 1389.6,794.092C1387.96,796.792 1388.24,801.687 1389.61,804.537C1393.76,813.13 1437.51,816.433 1447.78,827.941C1459.99,841.606 1459.26,881.166 1465.53,887.424ZM1629.56,1079.83C1623.91,1074.15 1623.65,1053.12 1619.61,1049.97C1616.35,1047.42 1614.7,1051 1613.68,1053.6C1611.09,1060.18 1609.74,1072.22 1606.08,1077.51C1600.85,1085.09 1580.92,1085.82 1579.59,1090.48C1577.47,1097.84 1593.74,1099.16 1598.6,1101.2C1613.82,1107.56 1607.39,1124.79 1616.35,1135.74C1617.35,1136.1 1618.22,1135.92 1619.14,1135.44C1624.62,1132.59 1622.45,1107.72 1633.03,1102.2C1637.42,1099.9 1654.86,1097.31 1655.32,1091.88C1655.42,1090.68 1655.38,1090.36 1654.68,1089.37C1652.03,1085.6 1634.51,1084.82 1629.56,1079.83ZM1082.31,644.954C1080.79,643.489 1077.38,642.496 1075.31,643.007C1064.34,645.733 1059.63,688.128 1050.68,696.597C1042.07,704.744 1004.04,709.757 1002.87,720.045C1001.13,735.441 1040.79,736.307 1050.72,746.814C1060.75,757.413 1064.69,793.59 1071.13,798.435C1073.92,800.536 1080.54,801.091 1082.88,797.781C1090.09,787.533 1088.93,758.056 1099.15,746.811C1109.15,735.814 1148.86,736.435 1148.89,721.729C1148.91,710.378 1117.32,706.757 1107.86,701.829C1087.23,691.08 1092.71,655.002 1082.31,644.954ZM895.658,1354.48C894.645,1354.57 893.268,1355.42 892.499,1356.15C886.366,1362.02 886.603,1389.87 878.632,1398.75C870.737,1407.54 845.419,1409.11 841.905,1414.7C839.457,1418.6 840.051,1421.49 843.863,1423.82C854.388,1430.25 877.783,1429.05 883.167,1443.42C885.782,1450.41 889.045,1476.96 892.938,1480.14C896.074,1482.71 899.238,1481.8 901.168,1478.41C909.721,1463.43 903.474,1441.34 922.987,1432.76C929.769,1429.78 956.328,1426.73 950.975,1415.2C948.385,1409.63 922.537,1407.81 914.716,1398.75C906.956,1389.75 906.628,1361.7 899.642,1356.14C898.51,1355.24 897.141,1354.34 895.658,1354.48ZM1385.26,1790.54L1062.26,1790.54C1053.99,1773.88 1035.2,1766.38 1000.04,1765.84C1000.04,1765.84 1116.65,1494.22 1165.13,1365.42C1196.5,1380.72 1227.87,1395 1258.97,1404L1259.11,1412.4L1239.89,1415.59C1256.88,1442.29 1283.45,1463.87 1316.77,1461.53C1318.25,1460.13 1269.91,1338.97 1265.43,1328.08C1262.46,1320.87 1277.69,1314.8 1280.45,1322.7L1447.86,1765.98C1418.49,1766.08 1395.77,1771.41 1385.26,1790.54ZM1361.57,1695.66L1340.69,1640.39C1302.23,1642.98 1262.68,1644.33 1222.32,1644.33C1185.34,1644.33 1149.04,1643.2 1113.64,1641.01C1105.42,1660.59 1097.58,1679.22 1090.39,1696.22C1133.16,1699.37 1177.26,1701.02 1222.32,1701.02C1269.96,1701.02 1316.52,1699.18 1361.57,1695.66ZM1131.71,943.754C1155.86,954.255 1167.63,983.269 1157.1,1000.24C1143.5,1022.18 1123.68,1026.16 1102.46,1015.37C1088.14,1008.09 1074.68,989.806 1075.8,973.367C1077.49,948.512 1107.12,933.061 1131.71,943.754ZM1301.66,1218.96C1313.97,1215.92 1329.41,1225.19 1332.77,1238.79C1336.69,1254.74 1322.32,1271.04 1309.6,1272.72C1295.23,1274.63 1282.76,1264.98 1280.25,1250.63C1277.56,1235.26 1282.6,1223.66 1301.66,1218.96Z" style="fill:rgb(0,89,138);"/>
        </g>
    </g>
</svg>
