<?xml version="1.0" encoding="UTF-8"?>
<svg baseProfile="tiny" version="1.2" viewBox="0 0 80.518 24.038" xml:space="preserve" xmlns="http://www.w3.org/2000/svg">
<path d="m13.682 22.672c-0.76 0.185-1.544 0.316-2.363 0.345-0.282 0.01-0.502 0.246-0.493 0.528 0.01 0.276 0.236 0.493 0.51 0.493 6e-3 0 0.012 0 0.018-1e-3 0.944-0.032 1.847-0.188 2.718-0.409l-0.39-0.956z" fill="#F2F2F2"/>
<path d="m21.515 16.622c-0.257-0.118-0.559-0.01-0.679 0.246-1.244 2.671-3.449 4.594-6.166 5.523l0.387 0.946c2.95-1.024 5.348-3.125 6.705-6.037 0.12-0.255 9e-3 -0.56-0.247-0.678" fill="#F2F2F2"/>
<path d="m11.527 11.281c-0.034 0.089-0.075 0.177-0.126 0.261-0.216 0.355-0.557 0.605-0.963 0.703-0.814 0.2-1.679-0.323-1.877-1.14-0.098-0.404-0.034-0.823 0.182-1.179 0.215-0.354 0.556-0.602 0.961-0.699 0.104-0.026 0.21-0.04 0.316-0.044 0.691-0.024 1.299 0.427 1.514 1.075l1.054-0.037c-8e-3 -0.031-7e-3 -0.064-0.015-0.097-0.329-1.351-1.765-2.223-3.111-1.89-0.668 0.162-1.233 0.576-1.591 1.162-0.359 0.589-0.465 1.28-0.301 1.951 0.287 1.179 1.373 2.004 2.584 1.963 0.177-8e-3 0.355-0.031 0.525-0.073 0.671-0.163 1.237-0.576 1.594-1.165 0.157-0.259 0.257-0.54 0.316-0.829l-1.062 0.038z" fill="#F2F2F2"/>
<path d="m10.253 17.728c-2.517 0.101-4.89-1.233-6.124-3.542-0.133-0.25-0.444-0.342-0.691-0.21-0.248 0.134-0.342 0.442-0.209 0.691 1.373 2.566 3.964 4.09 6.753 4.09 0.098 0 0.198-0.011 0.296-0.016l-0.025-1.013z" fill="#F2F2F2"/>
<path d="m17.483 9.193c-0.111-0.54-0.278-1.071-0.495-1.58-0.296-0.69-0.684-1.335-1.153-1.916-0.178-0.22-0.498-0.253-0.718-0.076s-0.254 0.499-0.076 0.718c0.411 0.509 0.75 1.072 1.007 1.675 0.191 0.446 0.337 0.912 0.436 1.387 0.783 3.767-1.516 7.441-5.124 8.191-0.029 7e-3 -0.06 6e-3 -0.089 0.012l0.025 1.031c0.09-0.016 0.181-0.023 0.272-0.043 4.161-0.865 6.812-5.081 5.915-9.399" fill="#F2F2F2"/>
<path d="m4.041 7.352l-0.873-0.539c-0.809 1.513-1.14 3.315-0.836 5.169 0.041 0.25 0.258 0.428 0.503 0.428 0.028 0 0.056-2e-3 0.084-7e-3 0.278-0.046 0.467-0.309 0.421-0.587-0.264-1.599 0.015-3.154 0.701-4.464" fill="#F2F2F2"/>
<path d="m13.294 3.503c-1.416-0.652-3.467-0.885-4.983-0.57-1.924 0.4-3.52 1.512-4.597 3.018l0.87 0.538c0.933-1.276 2.297-2.216 3.935-2.556 1.299-0.271 3.131-0.063 4.348 0.498 0.253 0.117 0.56 7e-3 0.677-0.251 0.118-0.256 6e-3 -0.559-0.25-0.677" fill="#F2F2F2"/>
<path d="m19.357 12.115l1.008 0.167c0.1-0.905 0.082-1.856-0.102-2.84-0.052-0.278-0.328-0.457-0.594-0.408-0.278 0.052-0.46 0.318-0.409 0.596 0.16 0.86 0.178 1.691 0.097 2.485" fill="#F2F2F2"/>
<path d="m19.197 13.123c-0.496 2.258-1.797 4.117-3.071 5.235-2.052 1.802-6.127 2.866-9.95 1.414-0.261-0.101-0.559 0.032-0.66 0.296-0.099 0.263 0.034 0.559 0.296 0.659 1.357 0.515 2.746 0.739 4.081 0.739 2.798 0 5.363-0.984 6.908-2.34 1.416-1.243 2.861-3.317 3.404-5.837l-1.008-0.166z" fill="#F2F2F2"/>
<path d="m8.02 0.104c-4.047 0.593-7.354 3.662-8.014 7.819-0.044 0.278 0.147 0.54 0.425 0.584 0.027 5e-3 0.054 7e-3 0.081 7e-3 0.246 0 0.464-0.179 0.503-0.432 0.585-3.687 3.51-6.412 7.108-6.962l-0.103-1.016z" fill="#F2F2F2"/>
<path d="m10.715 0.072c-0.567-0.071-1.128-0.085-1.68-0.062l0.103 1.02c0.477-0.018 0.961-6e-3 1.451 0.055 0.256 0.03 0.535-0.162 0.569-0.442 0.036-0.281-0.163-0.536-0.443-0.571" fill="#F2F2F2"/>
<path d="m5.942 10.152c0.086-0.591 0.287-1.163 0.624-1.678 0.607-0.926 1.538-1.559 2.62-1.783 0.28-0.06 0.567-0.089 0.851-0.089 1.948 0 3.65 1.387 4.048 3.298 0.225 1.085 0.013 2.193-0.595 3.12-0.032 0.049-0.074 0.086-0.107 0.132l0.742 0.7c0.07-0.093 0.154-0.173 0.218-0.271 0.758-1.154 1.022-2.535 0.741-3.888-0.496-2.383-2.618-4.112-5.047-4.112-0.354 0-0.71 0.037-1.059 0.11-1.348 0.281-2.508 1.07-3.265 2.223-0.454 0.693-0.708 1.47-0.793 2.269l1.022-0.031z" fill="#F2F2F2"/>
<path d="m12.687 13.898c-0.519 0.438-1.13 0.759-1.814 0.899-0.282 0.059-0.568 0.089-0.852 0.089-1.946 0-3.648-1.387-4.046-3.299-0.029-0.138-0.03-0.275-0.045-0.413l-1.018 0.03c0.018 0.197 0.023 0.394 0.064 0.59 0.495 2.384 2.616 4.114 5.045 4.114 0.354 0 0.711-0.038 1.061-0.111 0.89-0.184 1.686-0.609 2.35-1.196l-0.745-0.703z" fill="#F2F2F2"/>
<path d="m27.152 22.497v-20.63h6.684c2.533 0 4.184 0.103 4.954 0.309 1.182 0.311 2.172 0.983 2.969 2.021 0.797 1.035 1.196 2.376 1.196 4.017 0 1.267-0.23 2.332-0.69 3.195-0.459 0.862-1.043 1.541-1.752 2.032-0.708 0.493-1.427 0.819-2.16 0.979-0.994 0.196-2.433 0.295-4.32 0.295h-2.715v7.782h-4.166zm4.166-17.141v5.854h2.279c1.642 0 2.739-0.108 3.293-0.324 0.553-0.216 0.987-0.553 1.301-1.013 0.315-0.459 0.473-0.995 0.473-1.604 0-0.751-0.221-1.369-0.662-1.857-0.442-0.488-0.999-0.792-1.674-0.914-0.498-0.094-1.497-0.142-2.998-0.142h-2.012z" fill="#F2F2F2"/>
<path d="m62.404 22.497h-4.531l-1.801-4.687h-8.246l-1.703 4.687h-4.418l8.035-20.63h4.404l8.26 20.63zm-7.669-8.162l-2.842-7.655-2.786 7.655h5.628z" fill="#F2F2F2"/>
<polygon points="64.152 22.497 64.152 1.866 68.205 1.866 76.647 15.644 76.647 1.866 80.518 1.866 80.518 22.497 76.338 22.497 68.021 9.044 68.021 22.497" fill="#F2F2F2"/>
</svg>
